<?xml version="1.0" encoding="UTF-8"?>
<svg version="1.1" xmlns="http://www.w3.org/2000/svg" width="566" height="440">
<path d="M0 0 C3.05191485 2.63440819 4.39088115 5.06795916 6.02734375 8.75 C6.43984375 9.4925 6.85234375 10.235 7.27734375 11 C8.02734375 12.75 8.02734375 12.75 8.02734375 15.75 C9.01734375 15.75 10.00734375 15.75 11.02734375 15.75 C11.12015625 14.76 11.12015625 14.76 11.21484375 13.75 C13.27704946 6.13570198 18.15645608 0.706565 24.81640625 -3.3359375 C31.672105 -6.17027232 40.22140031 -6.0279361 47.02734375 -3.25 C48.03796875 -2.858125 49.04859375 -2.46625 50.08984375 -2.0625 C55.23739749 1.11365018 59.34652394 5.88477978 61.56640625 11.578125 C62.61724543 16.52953674 62.40609191 21.72430325 62.02734375 26.75 C61.02734375 27.75 61.02734375 27.75 57.88452148 27.86352539 C56.49331678 27.86336633 55.10210614 27.85767506 53.7109375 27.84765625 C52.6143557 27.84553383 52.6143557 27.84553383 51.49562073 27.84336853 C49.15198743 27.83775408 46.80844836 27.82519922 44.46484375 27.8125 C42.87955867 27.80748686 41.29427209 27.80292363 39.70898438 27.79882812 C35.81506765 27.78777997 31.9212217 27.77050572 28.02734375 27.75 C29.89300863 31.37793998 29.89300863 31.37793998 33.02734375 33.75 C36.06445373 34.11397585 38.99400007 34.16048763 42.02734375 33.75 C42.81109375 33.09 43.59484375 32.43 44.40234375 31.75 C48.5241363 28.60958663 53.01416497 29.27661934 58.02734375 29.75 C59.51234375 30.245 59.51234375 30.245 61.02734375 30.75 C60.39157665 36.15402038 57.96398997 40.04119451 53.90234375 43.625 C52.02734375 44.75 52.02734375 44.75 50.02734375 44.75 C50.02734375 45.41 50.02734375 46.07 50.02734375 46.75 C40.9169352 49.91883776 31.9046736 49.70376876 23.02734375 45.75 C16.38778181 41.67485778 13.43018114 35.95851216 11.02734375 28.75 C-7.28765625 28.255 -7.28765625 28.255 -25.97265625 27.75 C-24.20414589 30.93074165 -24.20414589 30.93074165 -21.97265625 33.75 C-19.71042045 33.98846903 -19.71042045 33.98846903 -17.09765625 34 C-16.21335938 34.02578125 -15.3290625 34.0515625 -14.41796875 34.078125 C-11.91327671 34.01602306 -11.91327671 34.01602306 -10.6640625 32.24609375 C-7.84421116 29.75186035 -4.35515064 30.44090194 -0.78515625 30.5625 C0.33922852 30.58280273 0.33922852 30.58280273 1.48632812 30.60351562 C3.33364142 30.63881461 5.18058441 30.69262083 7.02734375 30.75 C5.6193729 37.2178661 3.43377566 41.25293063 -1.8046875 45.375 C-8.42664133 49.57486981 -16.77589213 49.69800009 -24.328125 48.3203125 C-31.17711174 46.41061224 -36.12962849 42.56205976 -40.359375 36.890625 C-44.29409031 29.76671939 -44.08160723 20.63476161 -42.97265625 12.75 C-40.75800469 5.50828539 -35.52945526 0.46859984 -29.1328125 -3.34765625 C-19.63140161 -7.31660004 -8.3571103 -5.63461569 0 0 Z M-23.97265625 10.75 C-24.63265625 11.41 -25.29265625 12.07 -25.97265625 12.75 C-25.97265625 13.74 -25.97265625 14.73 -25.97265625 15.75 C-20.36265625 15.75 -14.75265625 15.75 -8.97265625 15.75 C-9.30265625 14.1 -9.63265625 12.45 -9.97265625 10.75 C-14.88324915 7.96290673 -18.9895141 8.38956424 -23.97265625 10.75 Z M30.02734375 10.75 C29.36734375 12.4 28.70734375 14.05 28.02734375 15.75 C33.96734375 15.75 39.90734375 15.75 46.02734375 15.75 C43.92853748 11.55238746 43.10079011 10.68973636 39.02734375 8.75 C35.16767552 8.75 33.34034815 8.91912915 30.02734375 10.75 Z " fill="#1C1B1A" transform="translate(249.97265625,242.25)"/>
<path d="M0 0 C3.9290625 -0.0309375 3.9290625 -0.0309375 7.9375 -0.0625 C8.7637085 -0.071604 9.58991699 -0.08070801 10.44116211 -0.09008789 C12.29433759 -0.09723945 14.14749308 -0.0502852 16 0 C17.82556117 1.82556117 17.12772403 4.70538603 17.12939453 7.15625 C17.13254669 8.47431641 17.13569885 9.79238281 17.13894653 11.15039062 C17.13715675 12.60026075 17.1351058 14.05013058 17.1328125 15.5 C17.13348557 16.97591162 17.13445563 18.45182313 17.13571167 19.92773438 C17.13718848 23.02475029 17.13503464 26.12173742 17.13037109 29.21875 C17.1246738 33.19708549 17.1279529 37.17535352 17.13394356 41.15368652 C17.13754963 44.20247917 17.13641037 47.25125571 17.13381577 50.30004883 C17.13314662 51.76733406 17.13397447 53.23462074 17.13629532 54.7019043 C17.13882257 56.74918593 17.1342906 58.79647266 17.12939453 60.84375 C17.12859894 62.01099609 17.12780334 63.17824219 17.12698364 64.38085938 C17 67 17 67 16 68 C13.30345146 68.07319621 10.63308542 68.09242537 7.9375 68.0625 C7.17888672 68.05798828 6.42027344 68.05347656 5.63867188 68.04882812 C3.75908129 68.0370068 1.87953101 68.01907078 0 68 C-0.33 67.01 -0.66 66.02 -1 65 C-1.804375 65.639375 -2.60875 66.27875 -3.4375 66.9375 C-8.21447092 70.06993995 -12.93872322 70.36545475 -18.51953125 69.69921875 C-25.80341559 68.05447067 -29.91499316 64.12261217 -34 58 C-38.16514948 50.46907315 -38.40517829 40.60398483 -36.34375 32.3828125 C-33.85597504 26.18482144 -29.76305998 20.0778047 -23.828125 16.80078125 C-16.46422317 13.99488073 -10.29081403 15.26594474 -3 18 C-3 18.66 -3 19.32 -3 20 C-2.34 20 -1.68 20 -1 20 C-0.67 13.4 -0.34 6.8 0 0 Z M-17 33 C-20.15122435 36.69453889 -20.51593499 40.08445037 -20.359375 44.78125 C-19.80079406 48.22988016 -18.23593827 50.38075803 -16 53 C-12.45870816 55.36086122 -11.17249782 55.57269578 -7 55 C-4.05123151 53.2867109 -1.59637767 51.27795214 -0.125 48.125 C0.23401882 42.02167998 0.33143724 37.43580225 -3.1875 32.25 C-7.96761342 28.95337006 -12.68022918 29.40019098 -17 33 Z " fill="#212020" transform="translate(334,151)"/>
<path d="M0 0 C3.9290625 -0.0309375 3.9290625 -0.0309375 7.9375 -0.0625 C8.7637085 -0.071604 9.58991699 -0.08070801 10.44116211 -0.09008789 C12.29433759 -0.09723945 14.14749308 -0.0502852 16 0 C17 1 17 1 17.12025452 3.62586975 C17.11803391 4.79613205 17.11581329 5.96639435 17.11352539 7.17211914 C17.11367142 7.81600082 17.11381744 8.45988251 17.1139679 9.12327576 C17.11326885 11.26060303 17.10547691 13.39784413 17.09765625 15.53515625 C17.09579204 17.01346285 17.09436815 18.49177007 17.09336853 19.97007751 C17.08954359 23.86798802 17.07971352 27.76586149 17.06866455 31.66375732 C17.05844992 35.63846333 17.0538708 39.61317529 17.04882812 43.58789062 C17.03809122 51.391944 17.02101509 59.19596682 17 67 C14.37472811 67.05382106 11.75055287 67.09358313 9.125 67.125 C8.37863281 67.14175781 7.63226563 67.15851563 6.86328125 67.17578125 C4.90805539 67.1933959 2.95257979 67.10320189 1 67 C0.01 66.01 0.01 66.01 -1 65 C-1.763125 65.474375 -2.52625 65.94875 -3.3125 66.4375 C-8.20457238 69.28172813 -12.46958976 69.61157775 -18 69 C-24.71316879 67.1701379 -29.23852409 63.82305405 -33 58 C-37.39296159 49.94623709 -37.20407827 39.83864366 -35.37890625 30.98828125 C-33.21853556 24.71840543 -29.52789886 20.60150986 -24 17 C-18.20200815 14.37449426 -12.14410671 14.64974646 -6 16 C-4.35 16.99 -2.7 17.98 -1 19 C-0.67 12.73 -0.34 6.46 0 0 Z M-17 33 C-19.41660864 37.41656061 -20.64143951 40.97539047 -20 46 C-18.70323727 49.48078416 -17.56785866 51.51101059 -14.75 53.9375 C-11.04020671 55.37082923 -8.81331821 55.03999587 -5 54 C-2.13057887 51.73466753 -1.16092388 50.48277163 0 47 C0.40813605 42.36922562 0.56808336 38.29847625 -1.3125 34 C-3.63244339 31.25043746 -5.27136774 30.07919916 -8.875 29.6875 C-12.53316394 30.05331639 -14.18087594 30.63803119 -17 33 Z " fill="#1E1D1C" transform="translate(351,222)"/>
<path d="M0 0 C16.5 0 33 0 50 0 C50 4.95 50 9.9 50 15 C46.49925197 15.87518701 44.04766429 16.10541529 40.5 16.0625 C39.448125 16.05476563 38.39625 16.04703125 37.3125 16.0390625 C35.10416667 16.01302083 32.89583333 15.98697917 30.6875 15.9609375 C29.635625 15.95320312 28.58375 15.94546875 27.5 15.9375 C26.5409375 15.92589844 25.581875 15.91429687 24.59375 15.90234375 C21.73298394 15.92093417 21.73298394 15.92093417 18 17 C17.67 20.3 17.34 23.6 17 27 C26.9 27 36.8 27 47 27 C47 31.62 47 36.24 47 41 C46 42 46 42 43.22436523 42.11352539 C42.01466064 42.10828857 40.80495605 42.10305176 39.55859375 42.09765625 C38.25341797 42.09443359 36.94824219 42.09121094 35.60351562 42.08789062 C34.2148431 42.07953401 32.82617123 42.07106905 31.4375 42.0625 C30.04492344 42.05748666 28.65234519 42.05292347 27.25976562 42.04882812 C23.83982549 42.03699442 20.4199075 42.01905831 17 42 C17 50.25 17 58.5 17 67 C5.75 68.125 5.75 68.125 0 67 C-0.15444705 59.44564647 -0.30261963 51.89119143 -0.4429636 44.33656311 C-0.50833654 40.82798564 -0.57580365 37.31947543 -0.64819336 33.81103516 C-0.73147834 29.76996196 -0.8054085 25.72876314 -0.87890625 21.6875 C-0.90594131 20.4382373 -0.93297638 19.18897461 -0.96083069 17.90185547 C-0.98092697 16.72123535 -1.00102325 15.54061523 -1.02172852 14.32421875 C-1.04171402 13.29385498 -1.06169952 12.26349121 -1.08229065 11.2019043 C-0.98591064 7.4517871 -0.46529838 3.72238707 0 0 Z " fill="#1F1E1C" transform="translate(158,222)"/>
<path d="M0 0 C1.2684375 0.556875 1.2684375 0.556875 2.5625 1.125 C7.42858013 4.86813856 10.52554996 10.10219983 12 16 C12 20.29 12 24.58 12 29 C0.45 29 -11.1 29 -23 29 C-20.60313047 33.87009237 -20.60313047 33.87009237 -17.75 35.375 C-14.1701031 36.18861293 -11.55756888 35.85645177 -8 35 C-7.60425781 34.49210937 -7.20851563 33.98421875 -6.80078125 33.4609375 C-3.85701711 31.07272104 -0.42583916 31.68942557 3.1875 31.8125 C4.31188477 31.83280273 4.31188477 31.83280273 5.45898438 31.85351562 C7.30629767 31.88881461 9.15324066 31.94262083 11 32 C9.92663251 38.29142134 6.98182858 42.92184967 1.890625 46.89453125 C-6.25429987 51.65695633 -14.38073805 51.43236089 -23.1875 49.1875 C-29.91912883 46.34525672 -34.31272188 42.24171779 -38 36 C-41.04328127 28.41249942 -41.50590767 19.69047783 -38.3125 12.0625 C-34.84132403 5.41245762 -30.23841238 -0.16804104 -22.93359375 -2.72265625 C-14.6373993 -4.90130905 -7.65763092 -3.82881546 0 0 Z M-21 13 C-21.66 14.32 -22.32 15.64 -23 17 C-17.06 17 -11.12 17 -5 17 C-6.38111293 11.9971178 -6.38111293 11.9971178 -9.4375 10.6875 C-14.23820822 9.39950511 -16.81183572 10.50492341 -21 13 Z " fill="#1F1E1E" transform="translate(393,170)"/>
<path d="M0 0 C2.98150248 2.3646399 4.75117731 5.22823498 5.28520203 9.0308075 C5.3015419 9.74726944 5.31788177 10.46373138 5.3347168 11.2019043 C5.36936287 12.42788582 5.36936287 12.42788582 5.40470886 13.67863464 C5.41939713 14.5516774 5.43408539 15.42472015 5.44921875 16.32421875 C5.47095657 17.22622513 5.4926944 18.12823151 5.51509094 19.05757141 C5.55893271 20.95958747 5.59814944 22.86171501 5.63305664 24.76391602 C5.68749762 27.68737241 5.75763397 30.61014302 5.83007812 33.53320312 C5.87071574 35.38018823 5.91046042 37.22719325 5.94921875 39.07421875 C5.96997971 39.9533342 5.99074066 40.83244965 6.01213074 41.73820496 C6.04736953 43.8251764 6.02925978 45.91293616 6 48 C5.67 48.33 5.34 48.66 5 49 C-0.28 49 -5.56 49 -11 49 C-11.33 37.12 -11.66 25.24 -12 13 C-18.4493658 11.43608136 -18.4493658 11.43608136 -21.875 13.3125 C-24.0895931 14.82725163 -24.0895931 14.82725163 -25 17 C-25.15608023 19.40560273 -25.25804458 21.78702772 -25.31640625 24.1953125 C-25.33718735 24.90275604 -25.35796844 25.61019958 -25.37937927 26.33908081 C-25.44481078 28.60095425 -25.50372974 30.86294462 -25.5625 33.125 C-25.60569133 34.65756422 -25.64930582 36.19011657 -25.69335938 37.72265625 C-25.80128289 41.48165268 -25.90040283 45.24073675 -26 49 C-31.61 49 -37.22 49 -43 49 C-43 32.17 -43 15.34 -43 -2 C-37.72 -2 -32.44 -2 -27 -2 C-26.34 -1.01 -25.68 -0.02 -25 1 C-24.4225 0.525625 -23.845 0.05125 -23.25 -0.4375 C-16.4125414 -5.18573514 -6.91218158 -3.80875312 0 0 Z " fill="#292826" transform="translate(222,170)"/>
<path d="M0 0 C0 0.66 0 1.32 0 2 C0.66 2 1.32 2 2 2 C4.15305957 5.85756507 5.39253254 8.55129785 5 13 C2.29957819 14.3502109 0.07548373 14.24311007 -2.9375 14.3125 C-4.52884766 14.36857422 -4.52884766 14.36857422 -6.15234375 14.42578125 C-9 14 -9 14 -10.5859375 11.99609375 C-11.28589844 11.00802734 -11.28589844 11.00802734 -12 10 C-14.27889342 9.51831272 -14.27889342 9.51831272 -16.6875 9.75 C-17.49574219 9.78609375 -18.30398437 9.8221875 -19.13671875 9.859375 C-19.75160156 9.90578125 -20.36648437 9.9521875 -21 10 C-21.33 11.32 -21.66 12.64 -22 14 C-21.17757812 14.09796875 -20.35515625 14.1959375 -19.5078125 14.296875 C-10.71038585 15.47528319 -2.98421054 16.89231578 4.125 22.4375 C6.96617127 26.42939655 6.74075952 31.14003884 6.546875 35.86328125 C5.72040139 40.60369776 3.85345351 43.19441543 0 46 C-8.11245723 50.76784767 -17.7721684 51.08156284 -26.75390625 48.88671875 C-32.11953368 46.76846235 -36.06531792 42.98619941 -38.5 37.8125 C-39 35 -39 35 -39 31 C-36.56131832 30.8920141 -34.12740867 30.81273411 -31.6875 30.75 C-30.99720703 30.71648437 -30.30691406 30.68296875 -29.59570312 30.6484375 C-27.57421875 30.609375 -27.57421875 30.609375 -24 31 C-22.34375 33 -22.34375 33 -21 35 C-18.49119384 35.48261667 -18.49119384 35.48261667 -15.8125 35.25 C-14.46091797 35.19585937 -14.46091797 35.19585937 -13.08203125 35.140625 C-12.39496094 35.09421875 -11.70789063 35.0478125 -11 35 C-10.67 34.01 -10.34 33.02 -10 32 C-14.36094563 30.48578277 -18.68347224 29.0279986 -23.1875 28 C-28.88249578 26.50623062 -33.16418318 24.54615327 -37 20 C-38.71374392 14.85876824 -38.86227645 9.28249649 -36.9375 4.1875 C-32.65352716 -0.64924353 -28.0110613 -3.68548886 -21.59765625 -4.8515625 C-14.14941624 -5.27717621 -6.35996388 -3.99769158 0 0 Z " fill="#1F1E1D" transform="translate(269,171)"/>
<path d="M0 0 C3.6815625 -0.0309375 3.6815625 -0.0309375 7.4375 -0.0625 C8.21150146 -0.071604 8.98550293 -0.08070801 9.78295898 -0.09008789 C11.52221717 -0.09724913 13.26145304 -0.05024702 15 0 C16 1 16 1 16.12025452 3.62586975 C16.1169236 5.3812632 16.1169236 5.3812632 16.11352539 7.17211914 C16.11367142 7.81600082 16.11381744 8.45988251 16.1139679 9.12327576 C16.11326885 11.26060303 16.10547691 13.39784413 16.09765625 15.53515625 C16.09579204 17.01346285 16.09436815 18.49177007 16.09336853 19.97007751 C16.08954359 23.86798802 16.07971352 27.76586149 16.06866455 31.66375732 C16.05844992 35.63846333 16.0538708 39.61317529 16.04882812 43.58789062 C16.03809122 51.39194596 16.02049462 59.19596308 16 67 C10.72 67 5.44 67 0 67 C0 65.35 0 63.7 0 62 C-1.98 62.495 -1.98 62.495 -4 63 C-4.495 61.515 -4.495 61.515 -5 60 C-5.66 59.67 -6.32 59.34 -7 59 C-7 58.34 -7 57.68 -7 57 C-6.34 57 -5.68 57 -5 57 C-4.814375 55.9171875 -4.814375 55.9171875 -4.625 54.8125 C-4 52 -4 52 -2.9375 49.8125 C-0.47376555 42.42129665 -1.9332067 36.03337578 -5.125 29.12890625 C-6 27 -6 27 -6 24 C-3 23 -3 23 0 24 C0 16.08 0 8.16 0 0 Z " fill="#1A1A19" transform="translate(352,222)"/>
<path d="M0 0 C5.61 0 11.22 0 17 0 C17 22.44 17 44.88 17 68 C11.39 68 5.78 68 0 68 C-1.4005627 54.03587117 -0.88286116 40.13509625 -0.5625 26.125 C-0.50917779 23.58725187 -0.45643841 21.04949142 -0.40429688 18.51171875 C-0.27625549 12.34098321 -0.14031023 6.17046826 0 0 Z " fill="#1E1E1C" transform="translate(158,151)"/>
<path d="M0 0 C4.33316652 3.65911839 6.68294851 6.62566632 7.21875 12.328125 C7.40945926 17.63619937 7.12607457 21.51929312 4 26 C-0.31833892 30.3425313 -4.54566789 33.26954833 -10.75 33.4375 C-17.02809687 33.32621911 -21.15540937 30.65585002 -25.6484375 26.4609375 C-29.38051956 22.42683724 -29.37411022 17.65783038 -29.25 12.4296875 C-28.64069254 6.50798058 -25.39046678 2.76325724 -21 -1 C-14.33009883 -4.89077568 -6.47120744 -3.60894261 0 0 Z " fill="#E54126" transform="translate(402,228)"/>
<path d="M0 0 C5.28 0 10.56 0 16 0 C17 1 17 1 17.12025452 3.01844788 C17.1169236 4.3474839 17.1169236 4.3474839 17.11352539 5.70336914 C17.11344986 6.70433121 17.11337433 7.70529327 17.11329651 8.73658752 C17.10813522 9.8251152 17.10297394 10.91364288 17.09765625 12.03515625 C17.0962413 13.14354355 17.09482635 14.25193085 17.09336853 15.39390564 C17.08775033 18.95013069 17.07519475 22.50629383 17.0625 26.0625 C17.05748734 28.46679597 17.05292403 30.87109292 17.04882812 33.27539062 C17.03777499 39.18361777 17.02049816 45.09179837 17 51 C11.39 51 5.78 51 0 51 C0 34.17 0 17.34 0 0 Z " fill="#2B2B29" transform="translate(278,168)"/>
<path d="M0 0 C7.26043562 -0.3944301 12.89772454 -0.25352882 18.8125 4.4375 C21.20055138 7.57967287 22.2447851 10.25862787 22.3347168 14.2019043 C22.36936287 15.42788582 22.36936287 15.42788582 22.40470886 16.67863464 C22.41939713 17.5516774 22.43408539 18.42472015 22.44921875 19.32421875 C22.47095657 20.22622513 22.4926944 21.12823151 22.51509094 22.05757141 C22.55893271 23.95958747 22.59814944 25.86171501 22.63305664 27.76391602 C22.68749762 30.68737241 22.75763397 33.61014302 22.83007812 36.53320312 C22.87071574 38.38018823 22.91046042 40.22719325 22.94921875 42.07421875 C22.96997971 42.9533342 22.99074066 43.83244965 23.01213074 44.73820496 C23.04736953 46.8251764 23.02925978 48.91293616 23 51 C22 52 22 52 18.40234375 52.09765625 C16.91403133 52.0909822 15.42573568 52.07902183 13.9375 52.0625 C12.79958008 52.05573242 12.79958008 52.05573242 11.63867188 52.04882812 C9.75908129 52.0370068 7.87953101 52.01907078 6 52 C5.97812622 50.56333984 5.97812622 50.56333984 5.95581055 49.09765625 C5.89741637 45.51151989 5.82019016 41.92598474 5.73754883 38.34033203 C5.70449138 36.79453357 5.67640097 35.24861996 5.65356445 33.70263672 C5.52919955 22.02944343 5.52919955 22.02944343 2 11 C1.64833591 9.67138371 1.31459217 8.33787916 1 7 C0.67 6.01 0.34 5.02 0 4 C0.66 4 1.32 4 2 4 C2 3.34 2 2.68 2 2 C1.34 2 0.68 2 0 2 C0 1.34 0 0.68 0 0 Z " fill="#1D1C1B" transform="translate(205,167)"/>
<path d="M0 0 C0.845625 0.37125 1.69125 0.7425 2.5625 1.125 C6.45120664 4.1163128 9.05632099 7.48438209 11 12 C11.4720148 16.05835408 11.37125265 19.93684594 11 24 C10.34 23.34 9.68 22.68 9 22 C8.67 23.32 8.34 24.64 8 26 C8.66 26.33 9.32 26.66 10 27 C7.02640551 28.48679725 4.33700821 28.11112605 1.0234375 28.09765625 C0.33819 28.0962413 -0.3470575 28.09482635 -1.05307007 28.09336853 C-3.24375761 28.08776675 -5.4343433 28.07521406 -7.625 28.0625 C-9.10937352 28.05748522 -10.59374865 28.05292228 -12.078125 28.04882812 C-15.71878315 28.03779677 -19.35938164 28.02053099 -23 28 C-22.2884375 27.1028125 -22.2884375 27.1028125 -21.5625 26.1875 C-19.83534256 23.99617076 -19.83534256 23.99617076 -19 21 C-19.66 20.34 -20.32 19.68 -21 19 C-19.00383446 17.00383446 -15.18298037 17.59016573 -12.4375 17.4375 C-11.37112305 17.37272461 -11.37112305 17.37272461 -10.28320312 17.30664062 C-8.52238088 17.20028223 -6.7612168 17.09961154 -5 17 C-6.4021955 13.79184283 -6.4021955 13.79184283 -9.1875 11.75 C-12.54230653 10.85538493 -15.54297098 10.86443023 -19 11 C-19.99 8.36 -20.98 5.72 -22 3 C-20.68 2.01 -19.36 1.02 -18 0 C-18.66 -0.33 -19.32 -0.66 -20 -1 C-20 -1.66 -20 -2.32 -20 -3 C-12.98728538 -5.08956734 -6.3987682 -3.1993841 0 0 Z " fill="#181716" transform="translate(393,170)"/>
<path d="M0 0 C4.33316652 3.65911839 6.68294851 6.62566632 7.21875 12.328125 C7.40945926 17.63619937 7.12607457 21.51929312 4 26 C-0.31833892 30.3425313 -4.54566789 33.26954833 -10.75 33.4375 C-17.02809687 33.32621911 -21.15540937 30.65585002 -25.6484375 26.4609375 C-29.38051956 22.42683724 -29.37411022 17.65783038 -29.25 12.4296875 C-28.64069254 6.50798058 -25.39046678 2.76325724 -21 -1 C-14.33009883 -4.89077568 -6.47120744 -3.60894261 0 0 Z M-21 4 C-22.4540625 4.7425 -22.4540625 4.7425 -23.9375 5.5 C-26.97155117 9.17763778 -26.56129217 12.43726071 -26.36328125 17.08203125 C-25.74958522 22.01139615 -23.92023646 25.9222705 -20 29 C-12.75566627 30.47661522 -5.99071541 30.33023847 1 28 C1 27.01 1 26.02 1 25 C1.66 25 2.32 25 3 25 C5.48743694 16.9641876 5.48743694 16.9641876 4 9 C3.34 9 2.68 9 2 9 C1.71125 8.38125 1.4225 7.7625 1.125 7.125 C0.06279958 4.86674235 0.06279958 4.86674235 -2 3 C-2.99 3 -3.98 3 -5 3 C-5 2.34 -5 1.68 -5 1 C-11.84928237 -0.42887523 -15.26926981 -0.07763494 -21 4 Z " fill="#BC6454" transform="translate(402,228)"/>
<path d="M0 0 C2.64590014 -0.02684679 5.29153096 -0.04676357 7.9375 -0.0625 C8.69224609 -0.07087891 9.44699219 -0.07925781 10.22460938 -0.08789062 C12.14994313 -0.09652441 14.07535581 -0.05224333 16 0 C17 1 17 1 17.1328125 3.90625 C17.13023437 5.0921875 17.12765625 6.278125 17.125 7.5 C17.12886719 9.27890625 17.12886719 9.27890625 17.1328125 11.09375 C17 14 17 14 16 15 C13.48863896 15.09975032 11.01096585 15.13882183 8.5 15.125 C7.79746094 15.12886719 7.09492188 15.13273438 6.37109375 15.13671875 C1.12661378 15.12661378 1.12661378 15.12661378 0 14 C-0.07271741 11.64686445 -0.08370868 9.29166332 -0.0625 6.9375 C-0.05347656 5.64714844 -0.04445313 4.35679687 -0.03515625 3.02734375 C-0.02355469 2.02832031 -0.01195312 1.02929688 0 0 Z " fill="#31302F" transform="translate(278,150)"/>
<path d="M0 0 C2.73883355 1.59029045 2.94967699 2.83465297 3.875 5.875 C4.02405268 9.60131711 3.25133987 11.08159647 1 14 C-1.88861709 15.44430855 -3.79647701 15.37688506 -7 15 C-9.9375 12.9375 -9.9375 12.9375 -12 10 C-12 6.48044581 -11.63108355 4.15079941 -9.9375 1.0625 C-6.74841596 -0.68635254 -3.54329495 -0.53260383 0 0 Z M-5 6 C-4.67 6.99 -4.34 7.98 -4 9 C-2.68 8.34 -1.36 7.68 0 7 C-1.65 6.67 -3.3 6.34 -5 6 Z " fill="#4B4749" transform="translate(384,275)"/>
<path d="M0 0 C2.16874252 0.50603992 3.99967627 0.99983813 6 2 C6 2.66 6 3.32 6 4 C6.66 4 7.32 4 8 4 C10.15305957 7.85756507 11.39253254 10.55129785 11 15 C8.23547967 16.38226016 5.9538637 16.09525387 2.875 16.0625 C1.77929688 16.05347656 0.68359375 16.04445312 -0.4453125 16.03515625 C-1.28835938 16.02355469 -2.13140625 16.01195312 -3 16 C-3.66 14.68 -4.32 13.36 -5 12 C-4.34 12 -3.68 12 -3 12 C-2.67 11.34 -2.34 10.68 -2 10 C-1.34 10 -0.68 10 0 10 C0 9.34 0 8.68 0 8 C0.66 8 1.32 8 2 8 C2.33 6.02 2.66 4.04 3 2 C2.01 2 1.02 2 0 2 C0 1.34 0 0.68 0 0 Z " fill="#312F2E" transform="translate(263,169)"/>
<path d="M0 0 C7.37531486 -0.3627204 7.37531486 -0.3627204 9.9375 1.125 C11.38591512 3.68102669 11.67815583 6.10340247 12 9 C11.34 9 10.68 9 10 9 C9.67 9.66 9.34 10.32 9 11 C9 9.35 9 7.7 9 6 C4.52116304 6.44703986 4.52116304 6.44703986 1 9 C0.67 8.01 0.34 7.02 0 6 C-0.66 6 -1.32 6 -2 6 C-1.34 4.02 -0.68 2.04 0 0 Z " fill="#242121" transform="translate(376,275)"/>
<path d="M0 0 C3.3 0 6.6 0 10 0 C11.42857143 8.42857143 11.42857143 8.42857143 9 13 C7.68 12.67 6.36 12.34 5 12 C3.875 4.375 3.875 4.375 5 1 C3.35 1 1.7 1 0 1 C0 0.67 0 0.34 0 0 Z " fill="#0F0D0C" transform="translate(197,223)"/>
<path d="M0 0 C0.33 0 0.66 0 1 0 C1 11.88 1 23.76 1 36 C0.01 36.495 0.01 36.495 -1 37 C-2.33196648 31.17513166 -1.92679139 25.54011134 -1.625 19.625 C-1.58117187 18.62210938 -1.53734375 17.61921875 -1.4921875 16.5859375 C-1.22941685 11.00936039 -0.77844825 5.52830201 0 0 Z " fill="#12100C" transform="translate(349,152)"/>
<path d="M0 0 C1.19109375 -0.03867188 1.19109375 -0.03867188 2.40625 -0.078125 C3.0971875 0.03015625 3.788125 0.1384375 4.5 0.25 C5.16 1.24 5.82 2.23 6.5 3.25 C5.33984375 3.36214844 5.33984375 3.36214844 4.15625 3.4765625 C-3.28533489 4.41597049 -8.00105754 6.10687147 -13.5 11.25 C-12.14804469 4.73603352 -12.14804469 4.73603352 -9 2.375 C-8.175 2.00375 -7.35 1.6325 -6.5 1.25 C-4.15897141 0.07948571 -2.60647047 0.0507754 0 0 Z " fill="#BE4634" transform="translate(390.5,224.75)"/>
<path d="M0 0 C-2.80734219 3.0880764 -5.27843122 4.84178729 -9.5078125 5.23046875 C-10.37148438 5.21628906 -11.23515625 5.20210938 -12.125 5.1875 C-13.42824219 5.17783203 -13.42824219 5.17783203 -14.7578125 5.16796875 C-17 5 -17 5 -19 4 C-19 3.01 -19 2.02 -19 1 C-17.84371094 1.01740234 -17.84371094 1.01740234 -16.6640625 1.03515625 C-15.15972656 1.04869141 -15.15972656 1.04869141 -13.625 1.0625 C-12.12839844 1.07990234 -12.12839844 1.07990234 -10.6015625 1.09765625 C-6.91272189 0.95918626 -3.88176219 -0.08438613 0 0 Z " fill="#C3614D" transform="translate(403,256)"/>
<path d="M0 0 C0 0.99 0 1.98 0 3 C-7.92 3 -15.84 3 -24 3 C-24 2.34 -24 1.68 -24 1 C-15.97875848 0.28586721 -8.05358138 -0.14525497 0 0 Z " fill="#0E0C0A" transform="translate(311,266)"/>
<path d="M0 0 C0.66 0 1.32 0 2 0 C2.18451025 18.82004556 2.18451025 18.82004556 1 28 C-0.65 28 -2.3 28 -4 28 C-3.01 27.67 -2.02 27.34 -1 27 C0.05899147 19.16346313 -0.14990305 11.82950415 -0.84375 3.9921875 C-0.8953125 3.00476563 -0.946875 2.01734375 -1 1 C-0.67 0.67 -0.34 0.34 0 0 Z " fill="#0F0D0A" transform="translate(348,190)"/>
<path d="M0 0 C-0.33 1.32 -0.66 2.64 -1 4 C-1.66 4 -2.32 4 -3 4 C-4.5159375 4.7425 -4.5159375 4.7425 -6.0625 5.5 C-10.35556818 7.42916355 -14.37310316 7.2832794 -19 7 C-19 6.34 -19 5.68 -19 5 C-17.64455078 4.70996094 -17.64455078 4.70996094 -16.26171875 4.4140625 C-15.08222656 4.15367187 -13.90273438 3.89328125 -12.6875 3.625 C-11.51574219 3.36976563 -10.34398437 3.11453125 -9.13671875 2.8515625 C-5.56436646 1.88173336 -3.72806266 0 0 0 Z " fill="#3C3A39" transform="translate(352,284)"/>
<path d="M0 0 C-0.0625 1.75 -0.0625 1.75 -1 4 C-8.3169093 8.9248428 -14.35054561 9.15115551 -23 9 C-23 8.67 -23 8.34 -23 8 C-21.865625 7.855625 -20.73125 7.71125 -19.5625 7.5625 C-16.19222799 7.38828522 -16.19222799 7.38828522 -15 6 C-13.48530552 5.76807135 -11.96245438 5.58784762 -10.4375 5.4375 C-9.61121094 5.35371094 -8.78492188 5.26992188 -7.93359375 5.18359375 C-6.97646484 5.09271484 -6.97646484 5.09271484 -6 5 C-6 3.68 -6 2.36 -6 1 C-3.92446352 0.4465236 -2.15634036 0 0 0 Z " fill="#464541" transform="translate(251,282)"/>
<path d="M0 0 C2.97 0 5.94 0 9 0 C8.125 5.75 8.125 5.75 7 8 C3.9375 8.625 3.9375 8.625 1 9 C1.391875 8.2575 1.78375 7.515 2.1875 6.75 C2.455625 5.8425 2.72375 4.935 3 4 C1.73647948 1.67488528 1.73647948 1.67488528 0 0 Z " fill="#111010" transform="translate(394,203)"/>
<path d="M0 0 C0.99 0.66 1.98 1.32 3 2 C-0.75 5 -0.75 5 -3 5 C-3 5.66 -3 6.32 -3 7 C-8.78357065 9.01167675 -13.90218999 9.22084624 -20 9 C-20 8.67 -20 8.34 -20 8 C-18.576875 7.87625 -18.576875 7.87625 -17.125 7.75 C-10.92941065 6.86491581 -4.21478323 4.7895264 0 0 Z " fill="#393836" transform="translate(303,282)"/>
<path d="M0 0 C3.22265625 5.2734375 3.22265625 5.2734375 4 7 C3.67 7.66 3.34 8.32 3 9 C-0.43372079 8.19879848 -2.45377123 7.54622877 -5 5 C-4.75 2.9375 -4.75 2.9375 -4 1 C-2 0 -2 0 0 0 Z " fill="#322F2E" transform="translate(252,244)"/>
<path d="M0 0 C2 2 2 2 2.01171875 4.49609375 C1.85123047 5.95208984 1.85123047 5.95208984 1.6875 7.4375 C1.58824219 8.40558594 1.48898437 9.37367188 1.38671875 10.37109375 C1 13 1 13 0 16 C-0.66 16 -1.32 16 -2 16 C-2 16.99 -2 17.98 -2 19 C-2.99 19 -3.98 19 -5 19 C-4.67 17.35 -4.34 15.7 -4 14 C-3.01 14 -2.02 14 -1 14 C-0.67 9.38 -0.34 4.76 0 0 Z " fill="#D04833" transform="translate(405,237)"/>
<path d="M0 0 C0.33 0.66 0.66 1.32 1 2 C6.28 2 11.56 2 17 2 C16.67 2.99 16.34 3.98 16 5 C12.4375 6.1875 12.4375 6.1875 9 7 C8.67 6.01 8.34 5.02 8 4 C5.36 3.67 2.72 3.34 0 3 C0 2.01 0 1.02 0 0 Z " fill="#2E2D2B" transform="translate(223,256)"/>
<path d="M0 0 C0.99 0.33 1.98 0.66 3 1 C3.32297455 7.05278224 3.52333984 11.78023727 0 17 C-0.99 17.66 -1.98 18.32 -3 19 C-3 18.01 -3 17.02 -3 16 C-2.34 16 -1.68 16 -1 16 C-0.67 10.72 -0.34 5.44 0 0 Z " fill="#BD7466" transform="translate(406,237)"/>
<path d="M0 0 C0 0.66 0 1.32 0 2 C-1.32064453 2.09087891 -1.32064453 2.09087891 -2.66796875 2.18359375 C-4.41013672 2.30927734 -4.41013672 2.30927734 -6.1875 2.4375 C-7.91033203 2.55931641 -7.91033203 2.55931641 -9.66796875 2.68359375 C-12.51598171 2.95403812 -15.21210482 3.37521747 -18 4 C-16.6896472 1.3792944 -15.66293782 1.27084434 -12.9375 0.3125 C-8.21068245 -1.20250563 -4.82921178 -0.96584236 0 0 Z " fill="#454442" transform="translate(325,167)"/>
<path d="M0 0 C0.33 0 0.66 0 1 0 C1 5.61 1 11.22 1 17 C0.34 17 -0.32 17 -1 17 C-1.33 17.66 -1.66 18.32 -2 19 C-1.85870713 16.58299013 -1.71213513 14.16649571 -1.5625 11.75 C-1.52318359 11.06808594 -1.48386719 10.38617188 -1.44335938 9.68359375 C-1.23333528 6.35551959 -0.98065998 3.19744598 0 0 Z " fill="#3E3C3B" transform="translate(159,193)"/>
<path d="M0 0 C0 0.33 0 0.66 0 1 C-2.9361451 1.52976318 -5.87348558 2.04912525 -8.8125 2.5625 C-9.64587891 2.71396484 -10.47925781 2.86542969 -11.33789062 3.02148438 C-12.54155273 3.2293457 -12.54155273 3.2293457 -13.76953125 3.44140625 C-14.50792236 3.57232666 -15.24631348 3.70324707 -16.00708008 3.83813477 C-18 4 -18 4 -21 3 C-14.37049735 -1.41966843 -7.63452447 -1.21182928 0 0 Z " fill="#3F3E3B" transform="translate(259,167)"/>
<path d="M0 0 C0.66 0 1.32 0 2 0 C4 2 4 2 5 5 C7.31 5 9.62 5 12 5 C10 7 10 7 7.125 7.3125 C3.69465272 6.96946527 2.33308023 6.51254793 0 4 C0 2.68 0 1.36 0 0 Z " fill="#373331" transform="translate(373,283)"/>
<path d="M0 0 C0.66 0.33 1.32 0.66 2 1 C-2.105466 4.97185616 -5.02968261 7.70876501 -11 8 C-10.34 7.67 -9.68 7.34 -9 7 C-9 6.34 -9 5.68 -9 5 C-6.75 3.5 -6.75 3.5 -4 2 C-3.278125 1.5875 -2.55625 1.175 -1.8125 0.75 C-1.214375 0.5025 -0.61625 0.255 0 0 Z " fill="#41403E" transform="translate(398,211)"/>
<path d="M0 0 C1.41128754 4.59165383 0.11300128 7.77399745 -2 12 C-2.22622081 13.70363822 -2.40888473 15.41328701 -2.5625 17.125 C-2.68818359 18.49011719 -2.68818359 18.49011719 -2.81640625 19.8828125 C-2.87699219 20.58148438 -2.93757813 21.28015625 -3 22 C-3.33 22 -3.66 22 -4 22 C-4.46251848 13.68751509 -4.22550835 7.30032023 0 0 Z " fill="#787774" transform="translate(357,178)"/>
<path d="M0 0 C2.7885289 -0.22107787 5.34653181 -0.28107535 8.125 -0.1875 C8.87910156 -0.17396484 9.63320312 -0.16042969 10.41015625 -0.14648438 C12.27374127 -0.11109985 14.13695978 -0.05729167 16 0 C15.67 0.66 15.34 1.32 15 2 C12.03 2 9.06 2 6 2 C5.67 2.66 5.34 3.32 5 4 C2.69 3.67 0.38 3.34 -2 3 C-1.34 2.01 -0.68 1.02 0 0 Z " fill="#575652" transform="translate(241,273)"/>
<path d="M0 0 C0 0.33 0 0.66 0 1 C-1.08667969 0.96519531 -1.08667969 0.96519531 -2.1953125 0.9296875 C-7.67285869 0.82743997 -11.7955296 1.17843536 -17 3 C-17.99 2.34 -18.98 1.68 -20 1 C-13.27777713 -1.657623 -7.07844318 -0.78767638 0 0 Z " fill="#514E4E" transform="translate(296,238)"/>
<path d="M0 0 C2.48076877 -0.07087911 4.74858062 -0.05028388 7.1875 0.4375 C11.42157216 1.28431443 15.70318454 1.60786344 20 2 C20 2.33 20 2.66 20 3 C17.2291017 3.02696009 14.4584655 3.04681952 11.6875 3.0625 C10.50897461 3.07506836 10.50897461 3.07506836 9.30664062 3.08789062 C8.54931641 3.09111328 7.79199219 3.09433594 7.01171875 3.09765625 C5.96697388 3.10551147 5.96697388 3.10551147 4.90112305 3.11352539 C3 3 3 3 0 2 C0 1.34 0 0.68 0 0 Z " fill="#7C7C7A" transform="translate(231,267)"/>
<path d="M0 0 C1.32 0 2.64 0 4 0 C3.34 1.32 2.68 2.64 2 4 C0.68 4 -0.64 4 -2 4 C-2.33 5.32 -2.66 6.64 -3 8 C-4.32 7.34 -5.64 6.68 -7 6 C-4.7629196 2.6443794 -4.57482962 2.80721959 -1 2 C-0.67 1.34 -0.34 0.68 0 0 Z " fill="#131311" transform="translate(240,258)"/>
<path d="M0 0 C3.96 0 7.92 0 12 0 C12.66 1.65 13.32 3.3 14 5 C13.44828125 4.66226563 12.8965625 4.32453125 12.328125 3.9765625 C9.49694595 2.78898739 7.77295344 2.97724297 4.75 3.375 C3.41195313 3.54128906 3.41195313 3.54128906 2.046875 3.7109375 C1.03367187 3.85402344 1.03367187 3.85402344 0 4 C0 2.68 0 1.36 0 0 Z " fill="#373634" transform="translate(335,250)"/>
<path d="M0 0 C2.4294516 3.6441774 2.16179575 5.71241272 2 10 C0.35 10 -1.3 10 -3 10 C-3 6 -3 6 -1 4 C-0.3574765 1.93125966 -0.3574765 1.93125966 0 0 Z " fill="#0F0E0C" transform="translate(292,208)"/>
<path d="M0 0 C0.33 0 0.66 0 1 0 C1 4.29 1 8.58 1 13 C-0.32 12.67 -1.64 12.34 -3 12 C-3 10.02 -3 8.04 -3 6 C-2.34 5.67 -1.68 5.34 -1 5 C-0.34444881 2.47266765 -0.34444881 2.47266765 0 0 Z " fill="#3E3C39" transform="translate(404,186)"/>
<path d="M0 0 C0.33 0 0.66 0 1 0 C1.33 1.98 1.66 3.96 2 6 C1.01 6 0.02 6 -1 6 C-1.66 7.32 -2.32 8.64 -3 10 C-5.97 10 -8.94 10 -12 10 C-12 9.67 -12 9.34 -12 9 C-10.9275 8.731875 -9.855 8.46375 -8.75 8.1875 C-5.40138041 7.1271038 -3.44827404 6.44827404 -1 4 C-0.20376178 1.90584196 -0.20376178 1.90584196 0 0 Z " fill="#514F4E" transform="translate(333,197)"/>
<path d="M0 0 C2.96175123 0.61277612 4.38058783 1.25372522 7 3 C7 3.99 7 4.98 7 6 C2.44615385 6.36923077 2.44615385 6.36923077 0.1875 4.5 C-0.204375 4.005 -0.59625 3.51 -1 3 C-0.67 2.01 -0.34 1.02 0 0 Z " fill="#2A2925" transform="translate(314,202)"/>
<path d="M0 0 C1.22589844 0.01353516 1.22589844 0.01353516 2.4765625 0.02734375 C3.41628906 0.04474609 3.41628906 0.04474609 4.375 0.0625 C4.375 0.3925 4.375 0.7225 4.375 1.0625 C3.67632812 1.18367187 2.97765625 1.30484375 2.2578125 1.4296875 C0.89269531 1.68105469 0.89269531 1.68105469 -0.5 1.9375 C-1.40492188 2.09992188 -2.30984375 2.26234375 -3.2421875 2.4296875 C-5.79005988 2.89294703 -5.79005988 2.89294703 -7.625 5.0625 C-9.75 4.6875 -9.75 4.6875 -11.625 4.0625 C-4.79975728 -0.06856796 -4.79975728 -0.06856796 0 0 Z " fill="#C1806E" transform="translate(390.625,224.9375)"/>
<path d="M0 0 C-0.99 1.485 -0.99 1.485 -2 3 C-4.1640625 3.29296875 -4.1640625 3.29296875 -6.625 3.1875 C-7.44226563 3.16042969 -8.25953125 3.13335937 -9.1015625 3.10546875 C-9.72804688 3.07066406 -10.35453125 3.03585937 -11 3 C-11 2.34 -11 1.68 -11 1 C-7.27569643 0.30710631 -3.78916254 -0.11144596 0 0 Z " fill="#504947" transform="translate(344,288)"/>
<path d="M0 0 C0.66 0.66 1.32 1.32 2 2 C1.01 3.485 1.01 3.485 0 5 C-2.05859375 5.36328125 -2.05859375 5.36328125 -4.4375 5.3125 C-5.21996094 5.30863281 -6.00242188 5.30476563 -6.80859375 5.30078125 C-9 5 -9 5 -12 3 C-8.7 3 -5.4 3 -2 3 C-2 2.34 -2 1.68 -2 1 C-1.34 0.67 -0.68 0.34 0 0 Z " fill="#0A0A08" transform="translate(241,275)"/>
<path d="M0 0 C2.31 0.33 4.62 0.66 7 1 C6.401875 1.226875 5.80375 1.45375 5.1875 1.6875 C2.43648112 3.33811133 1.47515363 5.1972081 0 8 C0.66 8.33 1.32 8.66 2 9 C1.01 9 0.02 9 -1 9 C-1.33 7.35 -1.66 5.7 -2 4 C-1.01 4 -0.02 4 1 4 C0.67 2.68 0.34 1.36 0 0 Z " fill="#5B5958" transform="translate(278,250)"/>
<path d="M0 0 C0.33 0 0.66 0 1 0 C1 2.64 1 5.28 1 8 C1.66 8 2.32 8 3 8 C3.33 10.31 3.66 12.62 4 15 C1 13 1 13 0 10 C-0.06802967 8.27204648 -0.08495645 6.54164635 -0.0625 4.8125 C-0.05347656 3.91144531 -0.04445312 3.01039063 -0.03515625 2.08203125 C-0.02355469 1.39496094 -0.01195312 0.70789063 0 0 Z " fill="#666562" transform="translate(231,178)"/>
<path d="M0 0 C0.33 0 0.66 0 1 0 C1 5.28 1 10.56 1 16 C0.01 16 -0.98 16 -2 16 C-1.7834375 14.824375 -1.7834375 14.824375 -1.5625 13.625 C-0.85996815 9.09757251 -0.42362505 4.56072928 0 0 Z " fill="#0B0708" transform="translate(366,232)"/>
<path d="M0 0 C0.226875 0.61875 0.45375 1.2375 0.6875 1.875 C2.37929835 4.61410209 3.99244161 5.05024472 7 6 C5.02 6.99 5.02 6.99 3 8 C1.5 6.8125 1.5 6.8125 0 5 C-0.1875 2.3125 -0.1875 2.3125 0 0 Z " fill="#43403F" transform="translate(332,270)"/>
<path d="M0 0 C1.2065625 0.0309375 1.2065625 0.0309375 2.4375 0.0625 C2.4375 0.7225 2.4375 1.3825 2.4375 2.0625 C-0.57740557 3.06746852 -2.60431692 3.16585303 -5.75 3.125 C-7.10158203 3.11146484 -7.10158203 3.11146484 -8.48046875 3.09765625 C-9.16753906 3.08605469 -9.85460937 3.07445312 -10.5625 3.0625 C-10.5625 2.7325 -10.5625 2.4025 -10.5625 2.0625 C-9.428125 1.918125 -8.29375 1.77375 -7.125 1.625 C-3.80350664 1.10055368 -3.09809271 0.07556324 0 0 Z " fill="#645C5B" transform="translate(293.5625,287.9375)"/>
<path d="M0 0 C1.4540625 0.0309375 1.4540625 0.0309375 2.9375 0.0625 C-0.20841933 2.86295623 -2.129564 3.41511589 -6.3125 3.25 C-7.20453125 3.22292969 -8.0965625 3.19585937 -9.015625 3.16796875 C-9.69109375 3.13316406 -10.3665625 3.09835937 -11.0625 3.0625 C-11.0625 2.7325 -11.0625 2.4025 -11.0625 2.0625 C-9.928125 1.918125 -8.79375 1.77375 -7.625 1.625 C-3.97252634 1.04829363 -3.54680005 0.07238367 0 0 Z " fill="#595755" transform="translate(239.0625,287.9375)"/>
<path d="M0 0 C1.32 0.33 2.64 0.66 4 1 C3.25 5.75 3.25 5.75 1 8 C0.67 5.36 0.34 2.72 0 0 Z " fill="#555449" transform="translate(307,272)"/>
<path d="M0 0 C1.85776765 3.13498292 2.20140476 5.37471432 2 9 C1.01 9 0.02 9 -1 9 C-1.125 2.25 -1.125 2.25 0 0 Z " fill="#0D0A0B" transform="translate(330,258)"/>
<path d="M0 0 C5.875 2.75 5.875 2.75 7 5 C5.02 5.33 3.04 5.66 1 6 C0.67 4.02 0.34 2.04 0 0 Z " fill="#454342" transform="translate(243,239)"/>
<path d="M0 0 C3.375 0.3125 3.375 0.3125 7 1 C7.66 1.99 8.32 2.98 9 4 C6 5 6 5 3.8125 4.0625 C3.214375 3.711875 2.61625 3.36125 2 3 C2 2.34 2 1.68 2 1 C1.34 0.67 0.68 0.34 0 0 Z " fill="#363431" transform="translate(295,240)"/>
<path d="M0 0 C0.33 1.65 0.66 3.3 1 5 C0.01 5.495 0.01 5.495 -1 6 C-2.65 4.35 -4.3 2.7 -6 1 C-3.92446352 0.4465236 -2.15634036 0 0 0 Z " fill="#373634" transform="translate(327,282)"/>
<path d="M0 0 C3 1 3 1 4.4375 3.4375 C6.09552981 6.15666889 7.08436939 6.89407115 10 8 C7.8125 8.375 7.8125 8.375 5 8 C2.91167347 6.17130326 1.61663209 4.30947441 0 2 C0 1.34 0 0.68 0 0 Z " fill="#D4472F" transform="translate(377,249)"/>
<path d="M0 0 C0 3 0 3 -1.125 4.75 C-3 6 -3 6 -6.1875 5.6875 C-7.115625 5.460625 -8.04375 5.23375 -9 5 C-8.443125 4.731875 -7.88625 4.46375 -7.3125 4.1875 C-4.80287477 2.89877353 -2.40665764 1.47073522 0 0 Z " fill="#3B3B3A" transform="translate(387,203)"/>
<path d="M0 0 C1.32 0 2.64 0 4 0 C6 3 6 3 5.625 5.1875 C5.41875 5.785625 5.2125 6.38375 5 7 C3.68 6.67 2.36 6.34 1 6 C1.20625 5.38125 1.4125 4.7625 1.625 4.125 C1.74875 3.42375 1.8725 2.7225 2 2 C1.34 1.34 0.68 0.68 0 0 Z " fill="#595555" transform="translate(381,281)"/>
<path d="M0 0 C0.66 0.33 1.32 0.66 2 1 C2 2.33333333 2 3.66666667 2 5 C-0.31 5 -2.62 5 -5 5 C-3.35 3.35 -1.7 1.7 0 0 Z " fill="#4C4947" transform="translate(219,240)"/>
<path d="M0 0 C0.99 0.66 1.98 1.32 3 2 C2.34 2 1.68 2 1 2 C0.67 2.66 0.34 3.32 0 4 C-3.96 3.67 -7.92 3.34 -12 3 C-12 2.67 -12 2.34 -12 2 C-11.21753906 1.93941406 -10.43507813 1.87882813 -9.62890625 1.81640625 C-8.61699219 1.73261719 -7.60507812 1.64882812 -6.5625 1.5625 C-5.55316406 1.48128906 -4.54382813 1.40007812 -3.50390625 1.31640625 C-1.06359221 1.26788532 -1.06359221 1.26788532 0 0 Z " fill="#070504" transform="translate(386,216)"/>
<path d="M0 0 C-0.75 5.75 -0.75 5.75 -3 8 C-3 6.02 -3 4.04 -3 2 C-3.66 1.67 -4.32 1.34 -5 1 C-2 0 -2 0 0 0 Z " fill="#2F2E2A" transform="translate(403,203)"/>
<path d="M0 0 C2.375 0.3125 2.375 0.3125 5 1 C5.66 1.99 6.32 2.98 7 4 C4.03 3.505 4.03 3.505 1 3 C0.67 3.66 0.34 4.32 0 5 C0 3.35 0 1.7 0 0 Z " fill="#393835" transform="translate(265,190)"/>
<path d="M0 0 C2.9719385 1.12451727 5.33440687 2.22293791 8 4 C7.67 4.66 7.34 5.32 7 6 C2.32307692 4.52307692 2.32307692 4.52307692 0.6875 1.875 C0.460625 1.25625 0.23375 0.6375 0 0 Z " fill="#3F3E3B" transform="translate(390,169)"/>
<path d="M0 0 C2.16874252 0.50603992 3.99967627 0.99983813 6 2 C6 2.66 6 3.32 6 4 C6.66 4 7.32 4 8 4 C7.67 4.66 7.34 5.32 7 6 C5.68 5.67 4.36 5.34 3 5 C3 4.01 3 3.02 3 2 C2.01 2 1.02 2 0 2 C0 1.34 0 0.68 0 0 Z " fill="#62615F" transform="translate(263,169)"/>
<path d="M0 0 C1.32 0 2.64 0 4 0 C3.6875 1.9375 3.6875 1.9375 3 4 C2.01 4.33 1.02 4.66 0 5 C-0.5625 3.0625 -0.5625 3.0625 -1 1 C-0.67 0.67 -0.34 0.34 0 0 Z " fill="#0C0B08" transform="translate(290,169)"/>
<path d="M0 0 C1.98 0 3.96 0 6 0 C5.67 2.31 5.34 4.62 5 7 C2 3.25 2 3.25 2 1 C1.34 0.67 0.68 0.34 0 0 Z " fill="#0D0C09" transform="translate(288,151)"/>
<path d="M0 0 C1.65 0 3.3 0 5 0 C5 0.66 5 1.32 5 2 C5.66 2.33 6.32 2.66 7 3 C7 3.66 7 4.32 7 5 C3.34683329 3.75023244 2.21934164 3.32901247 0 0 Z " fill="#312F2F" transform="translate(214,283)"/>
<path d="M0 0 C3.3 0.33 6.6 0.66 10 1 C6.00889681 2.9955516 4.30013434 3.19546065 0 3 C0 2.01 0 1.02 0 0 Z " fill="#0B0B08" transform="translate(237,266)"/>
<path d="M0 0 C0.99 0.33 1.98 0.66 3 1 C2.01 2.98 1.02 4.96 0 7 C-0.99 5.68 -1.98 4.36 -3 3 C-2.01 2.01 -1.02 1.02 0 0 Z " fill="#3A3835" transform="translate(332,254)"/>
<path d="M0 0 C0 0.66 0 1.32 0 2 C-2.35438733 3.42944945 -3.48032433 4.08661261 -6.25 3.625 C-6.8275 3.41875 -7.405 3.2125 -8 3 C-4.93882432 0.37613513 -4.26826873 0 0 0 Z " fill="#343331" transform="translate(205,168)"/>
<path d="M0 0 C0.66 0 1.32 0 2 0 C2 0.66 2 1.32 2 2 C1.34 2 0.68 2 0 2 C0 1.34 0 0.68 0 0 Z M-2 1 C-0.5 2.375 -0.5 2.375 1 4 C1 4.66 1 5.32 1 6 C-0.32 5.67 -1.64 5.34 -3 5 C-2.67 3.68 -2.34 2.36 -2 1 Z " fill="#292825" transform="translate(250,244)"/>
<path d="M0 0 C0.33 1.32 0.66 2.64 1 4 C0.34 4 -0.32 4 -1 4 C-1.33 4.66 -1.66 5.32 -2 6 C-2.99 6.33 -3.98 6.66 -5 7 C-3.70700306 4.11562221 -2.34058637 2.12780579 0 0 Z " fill="#484241" transform="translate(324,241)"/>
<path d="M0 0 C2.64 0.33 5.28 0.66 8 1 C7.01 2.485 7.01 2.485 6 4 C4.68 4 3.36 4 2 4 C2 3.34 2 2.68 2 2 C1.34 1.34 0.68 0.68 0 0 Z " fill="#2C2929" transform="translate(368,168)"/>
</svg>
