<svg width="7803" height="1067" viewBox="0 0 7803 1067" fill="none" xmlns="http://www.w3.org/2000/svg">
<path d="M5418.36 324.539C5464.02 363.942 5484.06 400.34 5508.54 455.412C5514.71 466.518 5520.88 477.624 5527.24 489.066C5538.46 515.24 5538.46 515.24 5538.46 560.111C5553.27 560.111 5568.09 560.111 5583.35 560.111C5584.73 545.304 5584.73 545.304 5586.15 530.197C5617 416.311 5690.01 335.107 5789.65 274.643C5892.22 232.25 6020.12 234.379 6121.95 275.929C6137.07 281.79 6152.19 287.651 6167.77 293.69C6244.78 341.196 6306.26 412.557 6339.47 497.713C6355.19 571.771 6352.03 649.469 6346.36 724.638C6331.4 739.595 6331.4 739.595 6284.38 741.293C6263.57 741.291 6242.76 741.205 6221.94 741.056C6205.54 741.024 6205.54 741.024 6188.8 740.991C6153.73 740.907 6118.67 740.72 6083.61 740.53C6059.89 740.455 6036.17 740.386 6012.46 740.325C5954.2 740.16 5895.94 739.902 5837.69 739.595C5865.6 793.858 5865.6 793.858 5912.49 829.337C5957.93 834.781 6001.76 835.476 6047.14 829.337C6058.87 819.465 6070.59 809.594 6082.67 799.423C6144.34 752.452 6211.52 762.428 6286.52 769.509C6308.74 776.913 6308.74 776.913 6331.4 784.466C6321.89 865.294 6285.57 923.434 6224.81 977.037C6196.75 993.863 6196.75 993.863 6166.83 993.863C6166.83 1003.73 6166.83 1013.61 6166.83 1023.78C6030.53 1071.17 5895.7 1067.96 5762.88 1008.82C5663.54 947.869 5619.3 862.369 5583.35 754.552C5309.33 747.148 5309.33 747.148 5029.78 739.595C5056.24 787.169 5056.24 787.169 5089.63 829.337C5123.47 832.903 5123.47 832.903 5162.56 833.076C5175.79 833.462 5189.02 833.847 5202.66 834.244C5240.13 833.316 5240.13 833.316 5258.82 806.843C5301.01 769.537 5353.21 779.843 5406.62 781.661C5423.44 781.965 5423.44 781.965 5440.6 782.275C5468.24 782.803 5495.87 783.608 5523.5 784.466C5502.44 881.205 5469.74 941.558 5391.36 1003.21C5292.29 1066.03 5167.38 1067.87 5054.39 1047.26C4951.92 1018.7 4877.82 961.138 4814.54 876.311C4755.67 769.759 4758.85 633.173 4775.44 515.24C4808.58 406.926 4886.8 331.548 4982.5 274.468C5124.66 215.105 5293.33 240.262 5418.36 324.539ZM5059.71 485.326C5049.83 495.198 5039.96 505.07 5029.78 515.24C5029.78 530.048 5029.78 544.855 5029.78 560.111C5113.72 560.111 5197.65 560.111 5284.12 560.111C5279.19 535.432 5274.25 510.753 5269.16 485.326C5195.69 443.64 5134.26 450.021 5059.71 485.326ZM5867.61 485.326C5857.73 510.005 5847.86 534.684 5837.69 560.111C5926.56 560.111 6015.42 560.111 6106.99 560.111C6075.59 497.328 6063.2 484.425 6002.26 455.412C5944.51 455.412 5917.17 457.942 5867.61 485.326Z" fill="black"/>
<path d="M2649.07 16.3606C2707.79 15.8971 2707.79 15.8971 2767.69 15.4242C2780.04 15.2878 2792.39 15.1514 2805.11 15.0109C2832.8 14.9037 2860.5 15.6072 2888.18 16.3606C2915.47 43.7118 2905.04 86.8583 2905.06 123.578C2905.11 143.326 2905.16 163.073 2905.21 183.42C2905.18 205.142 2905.15 226.864 2905.11 248.587C2905.12 270.7 2905.14 292.812 2905.16 314.925C2905.18 361.325 2905.15 407.725 2905.08 454.126C2904.99 513.731 2905.04 573.335 2905.13 632.939C2905.18 678.617 2905.17 724.295 2905.13 769.973C2905.12 791.957 2905.13 813.94 2905.17 835.923C2905.2 866.596 2905.14 897.27 2905.06 927.943C2905.05 945.431 2905.04 962.919 2905.03 980.937C2903.13 1020.18 2903.13 1020.18 2888.18 1035.16C2847.88 1036.26 2807.98 1036.54 2767.69 1036.1C2756.35 1036.03 2745.02 1035.96 2733.34 1035.89C2705.24 1035.71 2677.16 1035.45 2649.07 1035.16C2644.13 1020.33 2639.2 1005.49 2634.12 990.213C2622.1 999.792 2610.08 1009.37 2597.69 1019.24C2526.3 1066.17 2455.7 1070.6 2372.29 1060.62C2263.44 1035.98 2201.99 977.068 2140.94 885.337C2078.69 772.506 2075.1 624.703 2105.91 501.531C2143.09 408.671 2204.26 317.173 2292.96 268.076C2403.01 226.037 2495.27 245.08 2604.23 286.043C2604.23 295.931 2604.23 305.819 2604.23 316.007C2614.09 316.007 2623.96 316.007 2634.12 316.007C2639.05 217.124 2643.98 118.241 2649.07 16.3606ZM2395 510.778C2347.91 566.131 2342.46 616.92 2344.8 687.289C2353.15 738.957 2376.53 771.182 2409.95 810.425C2462.87 845.796 2482.09 848.97 2544.45 840.39C2588.52 814.72 2625.21 784.625 2647.2 737.386C2652.56 645.944 2654.02 577.237 2601.43 499.541C2529.99 450.15 2459.56 456.844 2395 510.778Z" fill="black"/>
<path d="M6930.07 21.3606C6988.8 20.897 6988.8 20.897 7048.73 20.4242C7061.08 20.2878 7073.43 20.1514 7086.15 20.0109C7113.86 19.9037 7141.56 20.6072 7169.25 21.3606C7184.2 36.3427 7184.2 36.3427 7186 75.6837C7185.97 93.2167 7185.93 110.75 7185.9 128.814C7185.9 138.461 7185.9 148.107 7185.91 158.046C7185.9 190.068 7185.78 222.088 7185.66 254.11C7185.63 276.258 7185.61 298.406 7185.6 320.554C7185.54 378.953 7185.39 437.352 7185.23 495.75C7185.08 555.3 7185.01 614.849 7184.93 674.399C7184.77 791.32 7184.52 908.241 7184.2 1025.16C7144.96 1025.97 7105.73 1026.56 7066.48 1027.03C7055.32 1027.29 7044.16 1027.54 7032.67 1027.79C7003.44 1028.06 6974.21 1026.71 6945.02 1025.16C6930.22 1010.33 6930.22 1010.33 6915.12 995.197C6903.71 1002.3 6892.3 1009.41 6880.55 1016.73C6807.42 1059.35 6743.66 1064.29 6660.99 1055.13C6560.63 1027.71 6492.98 977.564 6436.75 890.323C6371.08 769.66 6373.91 618.227 6401.19 485.63C6433.49 391.694 6488.66 330.014 6571.29 276.056C6657.97 236.721 6748.53 240.845 6840.38 261.074C6865.04 275.906 6889.71 290.739 6915.12 306.021C6920.05 212.083 6924.99 118.145 6930.07 21.3606ZM6675.94 515.77C6639.81 581.939 6621.5 635.258 6631.09 710.537C6650.47 762.687 6667.45 793.104 6709.57 829.458C6765.03 850.932 6798.32 845.975 6855.32 830.394C6898.22 796.455 6912.71 777.699 6930.07 725.519C6936.17 656.141 6938.56 595.152 6910.45 530.752C6875.77 489.558 6851.27 472.01 6797.4 466.142C6742.71 471.622 6718.08 480.383 6675.94 515.77Z" fill="black"/>
<path d="M4041.19 22C4287.97 22 4534.74 22 4789 22C4789 96.0562 4789 170.112 4789 246.413C4736.64 259.506 4699.98 262.951 4646.92 262.309C4631.18 262.193 4615.45 262.077 4599.24 261.958C4566.21 261.568 4533.19 261.179 4500.16 260.789C4484.43 260.673 4468.69 260.558 4452.48 260.439C4438.14 260.265 4423.8 260.091 4409.02 259.913C4366.23 260.191 4366.23 260.191 4310.4 276.334C4305.46 325.705 4300.53 375.076 4295.44 425.943C4443.51 425.943 4591.58 425.943 4744.13 425.943C4744.13 495.062 4744.13 564.181 4744.13 635.395C4729.17 650.356 4729.17 650.356 4687.66 652.054C4669.57 651.976 4651.48 651.897 4632.84 651.817C4613.32 651.768 4593.79 651.72 4573.68 651.671C4552.91 651.546 4532.14 651.419 4511.37 651.291C4490.55 651.216 4469.72 651.147 4448.89 651.086C4397.74 650.909 4346.59 650.641 4295.44 650.356C4295.44 773.783 4295.44 897.21 4295.44 1024.38C4127.19 1041.21 4127.19 1041.21 4041.19 1024.38C4038.88 911.357 4036.66 798.336 4034.56 685.313C4033.58 632.821 4032.58 580.331 4031.49 527.842C4030.25 467.384 4029.14 406.924 4028.04 346.463C4027.64 327.773 4027.23 309.083 4026.82 289.827C4026.52 272.164 4026.22 254.501 4025.91 236.302C4025.61 220.887 4025.31 205.472 4025 189.59C4026.44 133.485 4034.23 77.6901 4041.19 22Z" fill="black"/>
<path d="M3533.13 300.382C3552.14 308.71 3552.14 308.71 3571.54 317.206C3644.48 373.184 3690.9 451.459 3713 539.659C3713 603.816 3713 667.972 3713 734.072C3539.87 734.072 3366.75 734.072 3188.37 734.072C3224.3 806.904 3224.3 806.904 3267.07 829.41C3320.73 841.577 3359.89 836.61 3413.21 823.801C3419.15 816.206 3425.08 808.611 3431.19 800.785C3475.31 765.07 3526.74 774.292 3580.91 776.133C3597.76 776.436 3597.76 776.436 3614.95 776.746C3642.64 777.274 3670.33 778.079 3698.01 778.937C3681.92 873.024 3637.78 942.272 3561.47 1001.68C3439.38 1072.9 3317.57 1069.55 3185.56 1035.97C3084.66 993.468 3018.8 932.1 2963.53 838.756C2917.92 725.286 2910.98 594.85 2958.85 480.775C3010.88 381.324 3079.87 297.869 3189.37 259.665C3313.72 227.083 3418.35 243.122 3533.13 300.382ZM3218.35 494.795C3208.46 514.535 3198.57 534.275 3188.37 554.614C3277.41 554.614 3366.45 554.614 3458.18 554.614C3437.48 479.797 3437.48 479.797 3391.67 460.212C3319.71 440.95 3281.13 457.481 3218.35 494.795Z" fill="black"/>
<path d="M972.708 300.885C1017.34 336.312 1043.83 379.214 1051.83 436.184C1052.07 446.918 1052.32 457.652 1052.57 468.711C1053.09 487.079 1053.09 487.079 1053.62 505.817C1053.84 518.897 1054.06 531.977 1054.28 545.453C1054.61 558.967 1054.93 572.481 1055.27 586.404C1055.93 614.9 1056.51 643.398 1057.04 671.896C1057.85 715.695 1058.9 759.484 1059.98 803.277C1060.59 830.949 1061.19 858.62 1061.77 886.293C1062.08 899.463 1062.39 912.634 1062.71 926.204C1063.24 957.471 1062.97 988.75 1062.53 1020.02C1057.59 1024.96 1052.65 1029.91 1047.56 1035C968.517 1035 889.475 1035 808.039 1035C803.099 857.015 798.159 679.029 793.069 495.65C696.522 472.22 696.522 472.22 645.24 500.332C612.088 523.026 612.088 523.026 598.459 555.578C596.123 591.618 594.596 627.297 593.723 663.378C593.412 673.977 593.101 684.575 592.78 695.495C591.801 729.383 590.919 763.272 590.039 797.162C589.392 820.122 588.739 843.083 588.08 866.043C586.464 922.361 584.98 978.679 583.489 1035C499.508 1035 415.526 1035 329 1035C329 782.854 329 530.708 329 270.921C408.041 270.921 487.083 270.921 568.519 270.921C578.4 285.753 588.28 300.585 598.459 315.867C607.104 308.76 615.75 301.653 624.657 294.33C727.013 223.192 869.233 243.822 972.708 300.885Z" fill="black"/>
<path d="M1675.65 314.863C1675.65 324.752 1675.65 334.642 1675.65 344.831C1685.51 344.831 1695.37 344.831 1705.53 344.831C1737.7 402.634 1756.21 442.997 1750.35 509.657C1710.01 529.889 1676.78 528.284 1631.76 529.324C1607.99 530.164 1607.99 530.164 1583.74 531.021C1541.19 524.641 1541.19 524.641 1517.5 494.614C1507.04 479.809 1507.04 479.809 1496.37 464.705C1462.33 457.487 1462.33 457.487 1426.34 460.959C1414.27 461.499 1402.19 462.04 1389.75 462.597C1380.57 463.293 1371.38 463.988 1361.92 464.705C1356.99 484.484 1352.06 504.263 1346.98 524.641C1359.26 526.109 1371.55 527.577 1384.21 529.09C1515.64 546.747 1631.07 567.98 1737.28 651.07C1779.72 710.886 1776.36 781.471 1773.46 852.245C1761.11 923.276 1733.22 962.096 1675.65 1004.14C1554.45 1075.58 1410.14 1080.28 1275.95 1047.39C1195.79 1015.65 1136.84 958.976 1100.47 881.452C1093 839.309 1093 839.309 1093 779.373C1129.43 777.755 1165.8 776.567 1202.25 775.627C1212.56 775.124 1222.87 774.622 1233.5 774.105C1263.7 773.519 1263.7 773.519 1317.1 779.373C1341.84 809.341 1341.84 809.341 1361.92 839.309C1399.4 846.541 1399.4 846.541 1439.42 843.055C1459.61 842.244 1459.61 842.244 1480.21 841.417C1490.47 840.721 1500.74 840.026 1511.31 839.309C1516.24 824.475 1521.17 809.641 1526.25 794.357C1461.1 771.667 1396.52 749.824 1329.23 734.42C1244.15 712.037 1180.19 682.667 1122.88 614.547C1097.28 537.509 1095.06 453.953 1123.81 377.609C1187.81 305.134 1257.17 259.639 1352.99 242.166C1464.26 235.788 1580.63 254.961 1675.65 314.863Z" fill="black"/>
<path d="M13.9057 17C98.0868 17 182.268 17 269 17C269 352.94 269 688.88 269 1035C184.819 1035 100.638 1035 13.9057 1035C-7.11047 825.949 0.657921 617.846 5.46511 408.107C6.26524 370.115 7.05663 332.123 7.83904 294.131C9.76037 201.752 11.8003 109.376 13.9057 17Z" fill="black"/>
<path d="M7694.28 111.534C7759.13 166.3 7794.3 210.701 7802.31 296.051C7805.17 375.498 7800.93 433.618 7754.14 500.681C7689.52 565.677 7626.25 609.486 7533.4 612C7439.44 610.334 7377.68 570.366 7310.43 507.58C7254.58 447.201 7254.68 375.822 7256.53 297.571C7265.65 208.94 7314.3 152.892 7380 96.5663C7479.82 38.3322 7597.43 57.5177 7694.28 111.534Z" fill="#E54126"/>
<path d="M1810 271C1888.95 271 1967.9 271 2049.25 271C2064.2 285.98 2064.2 285.98 2066 316.218C2065.95 336.127 2065.95 336.127 2065.9 356.439C2065.9 371.434 2065.9 386.428 2065.9 401.878C2065.82 418.184 2065.74 434.491 2065.66 451.291C2065.64 467.895 2065.62 484.5 2065.6 501.607C2065.51 554.88 2065.33 608.153 2065.14 661.426C2065.06 697.444 2064.99 733.461 2064.93 769.478C2064.77 857.986 2064.51 946.493 2064.2 1035C1980.32 1035 1896.43 1035 1810 1035C1810 782.88 1810 530.76 1810 271Z" fill="black"/>
<path d="M1811.07 1.33234C1850.44 0.93032 1889.81 0.632072 1929.18 0.396424C1940.41 0.270952 1951.64 0.145481 1963.21 0.0162073C1991.86 -0.113081 2020.51 0.550014 2049.14 1.33234C2064.02 16.307 2064.02 16.307 2066 59.8272C2065.96 77.5863 2065.92 95.3453 2065.88 113.643C2065.94 140.281 2065.94 140.281 2066 167.458C2064.02 210.978 2064.02 210.978 2049.14 225.953C2011.78 227.446 1974.91 228.031 1937.55 227.825C1927.09 227.882 1916.64 227.94 1905.87 228C1827.84 227.849 1827.84 227.849 1811.07 210.978C1809.99 175.741 1809.83 140.472 1810.14 105.219C1810.28 85.8966 1810.41 66.574 1810.55 46.6659C1810.72 31.7058 1810.9 16.7457 1811.07 1.33234Z" fill="black"/>
<path d="M5284.14 814C5294 824.018 5303.85 834.036 5314 844.358C5299.22 866.898 5299.22 866.898 5284.14 889.894C5253.41 895.408 5253.41 895.408 5217.9 894.638C5206.22 894.579 5194.54 894.52 5182.5 894.46C5149.79 889.894 5149.79 889.894 5105 859.537C5154.26 859.537 5203.53 859.537 5254.29 859.537C5254.29 849.518 5254.29 839.5 5254.29 829.179C5264.14 824.17 5273.99 819.161 5284.14 814Z" fill="#0A0A08"/>
<path d="M7155 171C7159.95 171 7164.9 171 7170 171C7170 250.2 7170 329.4 7170 411C7155.15 411 7140.3 411 7125 411C7128.25 393.366 7128.25 393.366 7131.56 375.375C7142.1 307.464 7148.65 239.411 7155 171Z" fill="#0B0708"/>
<path d="M3427.8 990C3442.72 999.9 3457.63 1009.8 3473 1020C3463.06 1020 3453.11 1020 3442.87 1020C3437.89 1029.9 3432.92 1039.8 3427.8 1050C3368.14 1045.05 3308.47 1040.1 3247 1035C3247 1030.05 3247 1025.1 3247 1020C3258.79 1019.09 3270.58 1018.18 3282.72 1017.25C3297.97 1015.99 3313.22 1014.73 3328.92 1013.44C3344.13 1012.22 3359.34 1011 3375.01 1009.75C3411.78 1009.02 3411.78 1009.02 3427.8 990Z" fill="#070504"/>
<ellipse cx="7357" cy="926" rx="113" ry="112" fill="black"/>
<ellipse cx="3845" cy="926" rx="113" ry="112" fill="black"/>
</svg>
